# xmcd
#
# Track frame offsets: 
#        150
#        14612
#        32273
#        45689
#        64709
#        81582
#        100541
#        117333
#        127873
#        150931
#        163954
#        173015
#        193526
#
# Disc length: 2749 seconds
#
# Revision: 0
# Processed by: cddbd v1.5.1PL0 Copyright (c) Steve Scherf et al.
# Submitted via: ExactAudioCopy v0.95b3
#
DISCID=9a0abb0d
DTITLE=Velvet Crush - In the Presence of Greatness
DYEAR=1991
DGENRE=Indie
TTITLE0=Window to the World
TTITLE1=Drive Me Down
TTITLE2=Ash and Earth
TTITLE3=White Soul
TTITLE4=Superstar
TTITLE5=Blind Faith
TTITLE6=Speedway
TTITLE7=Stop
TTITLE8=Asshole
TTITLE9=Die a Little Every Day
TTITLE10=Circling the Sun [bonus]
TTITLE11=Everything Flows [bonus]
TTITLE12=She Cracked [bonus]
EXTD=
EXTT0=
EXTT1=
EXTT2=
EXTT3=
EXTT4=
EXTT5=
EXTT6=
EXTT7=
EXTT8=
EXTT9=
EXTT10=
EXTT11=
EXTT12=
PLAYORDER=
